<?xml version="1.0" encoding="utf-8"?>
<!-- Generator: Adobe Illustrator 26.1.0, SVG Export Plug-In . SVG Version: 6.00 Build 0)  -->
<svg version="1.1" id="Layer_1" xmlns="http://www.w3.org/2000/svg" xmlns:xlink="http://www.w3.org/1999/xlink" x="0px" y="0px"
	 viewBox="0 0 2130 1203" style="enable-background:new 0 0 2130 1203;" xml:space="preserve">
<style type="text/css">
	.st0{fill:#FFFFFF;}
</style>
<g>
	<g>
		<g>
			<path class="st0" d="M238.72,610.08c51.22,0,76.9-30.53,82.3-37.77l-24.28-18.27c-13.79,19.11-33.63,29.21-57.42,29.21
				c-24.46,0-45.36-8.83-60.45-25.61c-14.1-15.64-21.88-37.1-21.88-60.4c0-52.03,34.64-89.77,82.33-89.77
				c20.74,0,41.03,9.51,53.09,24.89l23.92-18.25c-16.16-20.99-44.55-33.48-76.11-33.48c-66.99,0-113.79,47.94-113.79,116.6
				C126.44,551.51,169.38,610.08,238.72,610.08z"/>
			<path class="st0" d="M480.27,458.69h-28.93l-41.52,114.64h-1.35l-0.13-0.32l-43.56-114.32h-31.08l60.82,147.29l-0.06,0.2l-9,23.2
				c-5.5,14.36-10.78,24.53-28.99,24.53c-5.3,0-11.06-1.15-16.3-3.19l-3.26,24.33c6.62,2.53,14.55,3.8,24.21,3.8
				c30.74,0,39.99-17.56,49.69-42.39L480.27,458.69z"/>
			<path class="st0" d="M534.47,583.69c10.25,14.94,30.13,24.55,50.67,24.55c43.66,0,74.14-31.52,74.14-76.63
				c0-45.1-30.47-76.62-74.14-76.62c-21.03,0-40.94,9.64-50.67,24.54l-0.16,0.26h-1.44V371.35h-26.82v233.17h26.82v-21.05h1.44
				L534.47,583.69z M581.74,479.97c29.22,0,48.84,20.75,48.84,51.64c0,30.89-19.62,51.64-48.84,51.64
				c-29.25,0-48.87-20.75-48.87-51.64C532.87,500.72,552.49,479.97,581.74,479.97z"/>
			<path class="st0" d="M805.88,563.34c-12.27,14.86-25.08,21.79-40.39,21.79c-24.62,0-50.11-16.21-50.11-43.31v-0.51h117.76v-9.4
				c0-35.44-18.63-76.91-71.06-76.91c-43.67,0-75.39,32.22-75.39,76.62c0,45.12,30.87,76.63,75.1,76.63
				c27.84,0,48.9-9.61,64.31-29.45L805.88,563.34z M715.39,519.54c0-20.48,18.94-43.3,46.09-43.3c26.21,0,42.28,16.19,42.99,43.3
				v0.51h-89.07V519.54z"/>
			<path class="st0" d="M937.18,483.68c3.67,0,7.87,0.64,13.1,2.02l1.22-29.01c-3.52-1.13-7.59-1.71-11.87-1.71
				c-18.28,0-36.58,10.96-43.5,26.03l-0.15,0.31h-1.49v-22.64h-26.83v145.83h26.83V531.3C894.5,499.73,908.87,483.68,937.18,483.68z
				"/>
			<polygon class="st0" points="989.46,386.21 989.46,604.51 1118.85,604.51 1118.85,577.69 1018.15,577.69 1018.15,386.21 			"/>
			<path class="st0" d="M1213.59,454.99c-43.48,0-77.55,33.66-77.55,76.62c0,42.96,34.07,76.63,77.55,76.63
				c43.45,0,77.53-33.68,77.53-76.63C1291.13,488.65,1257.05,454.99,1213.59,454.99z M1213.59,583.25
				c-29.24,0-48.87-20.75-48.87-51.64c0-30.88,19.62-51.64,48.87-51.64c29.23,0,48.84,20.75,48.84,51.64
				C1262.43,562.5,1242.83,583.25,1213.59,583.25z"/>
			<path class="st0" d="M1473.35,458.69h-26.84v21.1h-1.42l-0.17-0.24c-10.23-14.92-30.12-24.56-50.68-24.56
				c-43.64,0-74.12,31.52-74.12,76.62c-0.17,20.65,7.33,39.62,21.03,53.44c13.66,13.75,32.52,21.36,53.09,21.36
				c21.93,0,40.73-9.64,50.36-25.8l0.17-0.24h1.75v22.19c0,19.19-6.94,51.37-53.51,51.37c-20.4,0-37.03-7.5-52.33-23.59L1322.43,653
				c19.26,17.65,41.91,25.86,71.17,25.86c46.97,0,79.75-30.86,79.75-75.05V458.69z M1397.65,581.42
				c-29.68,0-48.85-19.56-48.85-49.81c0-30.88,19.65-51.64,48.85-51.64c29.22,0,48.87,20.75,48.87,51.64
				C1446.51,561.86,1427.35,581.42,1397.65,581.42z"/>
			<g>
				<rect x="1518.74" y="458.69" class="st0" width="26.83" height="145.83"/>
				<path class="st0" d="M1532.15,385.58c-10.81,0-19.91,9.13-19.91,19.94c0,10.81,9.11,19.94,19.91,19.94
					c10.79,0,19.93-9.13,19.93-19.94C1552.08,394.71,1542.95,385.58,1532.15,385.58z"/>
			</g>
			<path class="st0" d="M1644.91,608.24c5.27,0,18.04-1.16,24.58-4.74v-24.19c-5.86,3.23-13.67,3.93-19.3,3.93
				c-21.56,0-21.56-18.2-21.56-34.28v-67.14h39.95v-23.14h-39.95v-41.19h-26.85v41.19h-32.2v23.14h32.2v77.04
				C1601.78,582.01,1601.78,608.24,1644.91,608.24z"/>
			<path class="st0" d="M1816.07,563.34c-12.24,14.86-25.05,21.79-40.37,21.79c-24.62,0-50.1-16.21-50.1-43.31v-0.51h117.73v-9.4
				c0-35.44-18.61-76.91-71.05-76.91c-43.68,0-75.38,32.22-75.38,76.62c0,45.12,30.89,76.63,75.09,76.63
				c27.85,0,48.9-9.61,64.32-29.45L1816.07,563.34z M1725.6,519.54c0-20.48,18.91-43.3,46.1-43.3c26.18,0,42.27,16.19,42.94,43.3
				l0.03,0.51h-89.07V519.54z"/>
			<path class="st0" d="M1870.76,532.23c0,44.73,31.39,76.01,76.29,76.01c23.1,0,41.61-7.43,55.05-22.08l-19.08-19.07
				c-9.73,11.16-20.76,16.16-35.65,16.16c-27.76,0-47.89-21.21-47.89-50.38c0-26.2,14.33-52.6,46.37-52.6
				c14.76,0,25.73,4.88,36.56,16.22l20.31-18.52c-13.71-14.63-33.44-22.67-55.66-22.67C1902.15,455.3,1870.76,486.93,1870.76,532.23
				z"/>
		</g>
	</g>
	<g>
		<g>
			<path class="st0" d="M1073.56,752.95h12.21l22.89,63.38h0.22l23.77-63.38h11.55l-30.7,77.9h-9.9L1073.56,752.95z"/>
		</g>
		<g>
			<path class="st0" d="M1198.06,752.95h10.56v77.9h-10.56V752.95z"/>
		</g>
		<g>
			<path class="st0" d="M1272.05,752.95h50.29v9.9h-39.72v23.22h36.97v9.9h-36.97v24.98h41.7v9.9h-52.27V752.95z"/>
		</g>
		<g>
			<path class="st0" d="M1393.4,762.86h-25.09v-9.9h60.74v9.9h-25.09v68h-10.56V762.86z"/>
		</g>
		<g>
			<path class="st0" d="M1482.99,752.95h13.87l42.91,64.04h0.22v-64.04h10.56v77.9h-13.43l-43.35-64.04h-0.22v64.04h-10.56V752.95z"
				/>
		</g>
		<g>
			<path class="st0" d="M1629.05,752.95h9.57l33.34,77.9h-12.33l-7.81-19.26h-37.08l-7.7,19.26h-12.33L1629.05,752.95z
				 M1647.98,802.36l-14.52-35.76h-0.22l-14.74,35.76H1647.98z"/>
		</g>
		<g>
			<path class="st0" d="M1714.61,752.95h15.74l24.76,58.98h0.44l24.54-58.98h15.73v77.9h-10.56v-64.04h-0.22l-26.3,64.04h-7.04
				l-26.3-64.04h-0.22v64.04h-10.56V752.95z"/>
		</g>
	</g>
</g>
</svg>
